<!--?xml version="1.0" encoding="UTF-8"?-->
<svg xmlns:xlink="http://www.w3.org/1999/xlink" xmlns="http://www.w3.org/2000/svg" version="1.1" viewBox="0 0 106 103" height="103px" width="106px">
  <title>csc-logo-vertical</title>
  <desc>Created with Sketch.</desc>
  <defs>
    <polygon points="0.214022508 0.0999356111 1.93243989 0.0999356111 1.93243989 6.27700543 0.214022508 6.27700543 0.214022508 0.0999356111" id="path-1"></polygon>
    <polygon points="7.88497493 10.1320906 7.88497493 0.438336363 0.163541039 0.438336363 0.163541039 10.1320906 7.88497493 10.1320906" id="path-3"></polygon>
  </defs>
  <g fill-rule="evenodd" fill="none" stroke-width="1" stroke="none" id="Latest">
    <g id="csc-logo-vertical">
      <g id="CSC-logo">
        <path fill="#B1043E" id="Fill-1" d="M31.8752638,37.2437937 C39.1037556,57.8548234 30.8759076,85.5110375 18.6865237,102.596162 C18.6865237,102.596162 18.6489789,102.566347 18.6484267,102.565243 C19.4015327,100.370524 19.6902969,95.959002 19.5357004,94.5599034 C27.2412329,85.8042188 29.9113358,75.0200069 29.9113358,66.4222315 C29.9113358,55.5596171 25.9967309,45.6759299 19.597539,38.3502632 C18.1509572,36.6944239 17.434844,35.898804 16.3366566,35.5719427 C14.5941329,35.0551486 12.965348,33.960274 12.4987978,32.03886 C11.8312721,29.292011 13.3198158,27.1541619 15.991575,26.5954059 C18.3276389,26.1084269 20.4202133,27.2690051 21.3687735,28.1496531 C22.4603354,29.1628125 23.3227631,30.108612 23.436502,31.5932907 C23.5331248,32.8493875 22.361504,33.9282504 23.2289009,34.7398822 C30.2757418,31.5695491 43.1580495,27.0580912 44.1369768,15.9155467 C43.1326515,14.9112214 41.4028268,12.3719734 42.7124802,9.63395855 L42.7660368,9.63395855 C42.758307,11.1313363 43.1851039,12.8241683 45.0601389,14.1432079 C44.9265233,27.8222398 39.8701126,32.572218 31.8752638,37.2437937"></path>
        <path fill="#F68B1F" id="Fill-3" d="M1.87370989,58.0292966 C1.68156849,58.6554125 1.39059575,59.7806544 1.30170274,60.7921574 C1.30170274,60.7932616 1.24814609,60.7932616 1.24814609,60.7932616 C-3.78231442,48.444312 7.39832715,42.0865299 16.8938666,37.4939088 C24.0610719,44.6793345 28.5570702,54.9738067 28.5570702,66.4222315 C28.5570702,76.4881217 25.1012857,85.7026268 19.3878398,92.6561577 L19.3513992,92.6318639 C19.1117746,90.8943094 18.6849778,89.2804321 18.1096578,87.8581441 C31.2807297,78.4559147 28.1678182,54.4868276 19.3425651,42.725897 C11.8059845,45.4467958 3.50801602,46.5549216 1.18244257,53.1970509 C0.744050992,54.4481785 0.450869724,55.8423079 1.87370989,58.0292966"></path>
        <g transform="translate(42.514045, 0.452195)" id="Group-7">
          <mask fill="white" id="mask-2">
            
          </mask>
          <g id="Clip-6"></g>
          <path mask="url(#mask-2)" fill="#F68B1F" id="Fill-5" d="M1.07323117,6.27700543 C0.476378151,6.26651495 0.220189623,5.7326048 0.214116188,5.27764932 C0.20417784,4.50245817 0.988203076,0.765639293 1.03568629,0.099769972 L1.11077604,0.099769972 C1.15881138,0.765639293 1.94228449,4.50245817 1.93234614,5.27764932 C1.92627271,5.7326048 1.67008418,6.26651495 1.07323117,6.27700543"></path>
        </g>
        <path fill="#F68B1F" id="Fill-8" d="M46.6981443,8.10869819 C46.2834943,7.6791407 46.4795006,7.12093682 46.7975277,6.79517985 C47.3380634,6.23973662 50.5348987,4.15157927 51.039546,3.71429195 L51.0925505,3.76729647 C50.6552632,4.27249583 48.567658,7.468779 48.0122147,8.00931471 C47.6859056,8.32734185 47.1277017,8.52334815 46.6981443,8.10869819"></path>
        <path fill="#F68B1F" id="Fill-10" d="M47.9067578,11.2554 C47.9172483,10.658547 48.4506063,10.4018064 48.9061139,10.3957329 C49.6813051,10.3863467 53.4175718,11.1703719 54.0839933,11.2178552 L54.0839933,11.2923928 C53.4175718,11.3404281 49.6813051,12.1244534 48.9061139,12.1139629 C48.4506063,12.1089937 47.9172483,11.8517009 47.9067578,11.2554"></path>
        <path fill="#B1043E" id="Fill-12" d="M47.5937551,9.56074605 C47.4297723,9.14388757 47.7262664,8.81205717 48.0404286,8.67678521 C48.5759951,8.44765107 51.3951732,7.91705371 51.8716618,7.75804014 L51.8931949,7.8099404 C51.4443128,8.0346575 49.0756732,9.6540561 48.5345853,9.8699391 C48.2165582,9.99637698 47.7726453,9.97153111 47.5937551,9.56074605"></path>
        <path fill="#B1043E" id="Fill-14" d="M45.290322,7.08825069 C44.8789849,6.90991256 44.854139,6.46599968 44.981129,6.14797254 C45.197012,5.60633257 46.8158585,3.23824508 47.0405756,2.78936302 L47.0924758,2.81089611 C46.9340144,3.28738469 46.4039692,6.10656276 46.1737308,6.64157716 C46.0390109,6.95629152 45.7071805,7.25223344 45.290322,7.08825069"></path>
        <path fill="#6D5A54" id="Fill-16" d="M87.7881891,81.9173309 L87.7881891,81.3801079 C87.7881891,77.6074006 86.0445612,76.5324026 84.045849,76.5324026 C81.4817552,76.5324026 80.0666448,78.6073088 80.0666448,81.3878378 C80.0666448,84.3450484 81.7092329,86.2261569 84.3197057,86.2261569 C85.561447,86.2261569 86.674542,85.8236538 87.6424267,85.0020837 L86.8572972,83.7785626 C86.1638214,84.3825933 85.4151325,84.6917864 84.5571217,84.6917864 C82.7499988,84.6917864 82.2751666,83.3407232 82.2751666,82.0636454 L82.2751666,81.9173309 L87.7881891,81.9173309 Z M85.7072095,80.4387255 L82.2933869,80.4387255 C82.2933869,78.9418999 82.9145337,78.0468964 84.045849,78.0468964 C85.0501742,78.0468964 85.7072095,78.9418999 85.7072095,80.4387255 L85.7072095,80.4387255 Z"></path>
        <path fill="#6D5A54" id="Fill-18" d="M61.1088042,49.7279601 L60.1232513,48.3962215 C59.411003,48.961603 58.7539678,49.198467 57.8595165,49.198467 C54.8095479,49.198467 54.5555679,46.0568447 54.5555679,44.2701506 C54.5555679,42.5325961 54.9354336,39.4329358 57.7314222,39.4329358 C58.5165517,39.4329358 59.2105797,39.6521315 59.8858352,40.1446319 L60.8531678,38.7576802 C60.105031,38.1365335 58.936723,37.7715752 57.7132019,37.7715752 C54.2888889,37.7715752 52.2189518,40.7216082 52.2189518,44.5075667 C52.2189518,47.9103467 54.1630031,50.8421593 57.658541,50.8421593 C59.0096042,50.8421593 60.1232513,50.476649 61.1088042,49.7279601"></path>
        <path fill="#6D5A54" id="Fill-20" d="M65.4907875,76.5337829 C63.0442975,76.5337829 61.4563703,78.4320074 61.4563703,81.388666 C61.4563703,84.3469809 63.0260772,86.2269851 65.5272281,86.2269851 C68.028379,86.2269851 69.6163062,84.3828694 69.6163062,81.4074384 C69.6163062,78.4866683 68.1194805,76.5337829 65.4907875,76.5337829 M65.5090078,78.049381 C66.6773158,78.049381 67.4072323,78.8339584 67.4072323,81.4444311 C67.4072323,83.7622748 66.750197,84.7296073 65.5636687,84.7296073 C64.3589201,84.7296073 63.6836645,83.9450299 63.6836645,81.261676 C63.6836645,79.0156093 64.2308258,78.049381 65.5090078,78.049381"></path>
        <path fill="#6D5A54" id="Fill-22" d="M74.4454047,85.9709622 L74.1168871,84.7292208 C73.879471,84.8390948 73.5691737,84.7479932 73.4598519,84.5840105 C73.3135373,84.3648147 73.2588764,84.1638392 73.2588764,82.92265 L73.2588764,75.0906796 C73.2588764,73.8864831 73.2406561,73.1206781 73.0943415,72.5536402 L71.0315822,73.010252 C71.1596764,73.7771612 71.2143373,74.4529689 71.2143373,75.7118263 L71.2143373,83.5791331 C71.2143373,84.3648147 71.2143373,86.1896058 73.2406561,86.1896058 C73.6967158,86.1896058 74.0798944,86.1172768 74.4454047,85.9709622"></path>
        <path fill="#6D5A54" id="Fill-24" d="M79.2566142,85.9709622 L78.9280966,84.7292208 C78.6906805,84.8390948 78.3803832,84.7479932 78.2710614,84.5840105 C78.1247468,84.3648147 78.0700859,84.1638392 78.0700859,82.92265 L78.0700859,75.0906796 C78.0700859,73.8864831 78.0518656,73.1206781 77.905551,72.5536402 L75.8427917,73.010252 C75.9708859,73.7771612 76.0255469,74.4529689 76.0255469,75.7118263 L76.0255469,83.5791331 C76.0255469,84.3648147 76.0255469,86.1896058 78.0518656,86.1896058 C78.5079253,86.1896058 78.8911039,86.1172768 79.2566142,85.9709622"></path>
        <path fill="#6D5A54" id="Fill-26" d="M61.0174266,64.499879 C61.0174266,62.6016545 59.7397967,61.4327943 57.9144535,60.9038533 L56.4176278,60.4654618 C55.1758864,60.1005035 54.738047,59.6991047 54.738047,58.9139752 C54.738047,57.8737614 55.5596171,57.1974016 56.8008063,57.1974016 C57.8045795,57.1974016 58.6079293,57.4718105 59.7762373,58.1652863 L60.7253496,56.686681 C59.6122546,55.9015515 58.1695377,55.4819323 56.727373,55.4819323 C54.1903336,55.4819323 52.4378715,56.9975304 52.4378715,59.2242725 C52.4378715,59.9547411 52.6206267,60.5571154 52.9673646,61.0678361 C53.4416447,61.7800844 54.2632148,62.2549166 55.4133025,62.5834342 L56.7643657,62.9660606 C58.0602159,63.3310188 58.6443699,63.9162771 58.6443699,64.8466169 C58.6443699,66.1065786 57.713478,66.8547153 56.1619914,66.8547153 C54.8838094,66.8547153 53.8800363,66.4709847 52.7481689,65.8145016 L51.9448191,67.4212012 C53.1860083,68.1687858 54.6463933,68.5525164 56.0891102,68.5525164 C59.3196255,68.5525164 61.0174266,66.5990789 61.0174266,64.499879"></path>
        <path fill="#6D5A54" id="Fill-28" d="M75.9443837,58.9685809 C75.7069676,58.858707 75.5247645,58.8228185 75.2321354,58.8228185 C74.3376841,58.8228185 73.6077676,59.2970985 72.877299,60.3014238 C72.877299,59.790151 72.7497569,59.2612101 72.5305611,58.8410388 L70.6869975,59.3153188 C70.8874209,59.8818047 71.0155152,60.6299414 71.0155152,61.7982495 L71.0155152,68.314493 L73.0230615,68.314493 L73.0230615,62.1444353 C73.0390733,61.4426775 73.9975717,60.3505634 75.3237891,60.8309169 L75.9443837,58.9685809 Z"></path>
        <path fill="#7B7573" id="Fill-30" d="M85.0442664,59.0782892 L82.9450665,59.0782892 L81.4118002,63.7691895 C81.0645102,64.8099554 80.8640868,65.9053822 80.8640868,65.9053822 L80.8276462,65.9053822 C80.8276462,65.9053822 80.5720098,64.8099554 80.2617125,63.843175 L78.6550129,58.8585413 L76.5922535,59.1511705 L79.9149746,68.3518722 L81.6856569,68.3518722 L85.0442664,59.0782892 Z"></path>
        <path fill="#6D5A54" id="Fill-32" d="M87.2854191,57.7095579 C88.034108,57.7095579 88.6364824,57.1066314 88.6364824,56.376715 C88.6364824,55.6092536 88.034108,55.0256517 87.3218598,55.0256517 C86.573723,55.0256517 85.9890169,55.6280261 85.9890169,56.376715 C85.9890169,57.1066314 86.5549506,57.7095579 87.2854191,57.7095579 L87.2854191,57.7095579 Z M88.3074126,68.350768 L88.3074126,58.8949819 L86.281646,59.2599402 L86.281646,68.350768 L88.3074126,68.350768 Z"></path>
        <path fill="#6D5A54" id="Fill-34" d="M96.6931699,67.3298236 L95.7440576,66.1068546 C95.1416833,66.7092289 94.5205365,67.0189741 93.8817216,67.0189741 C92.8315695,67.0189741 92.038158,66.3746379 92.038158,63.9706619 C92.038158,61.3508029 92.6013311,60.4657378 93.8817216,60.4657378 C94.4112147,60.4657378 94.8860469,60.6849336 95.4337603,61.1779861 L96.4375335,59.8451432 C95.6159633,59.078234 94.8860469,58.8413701 93.8817216,58.8413701 C91.8189623,58.8413701 89.8108638,60.4475175 89.8108638,63.8066792 C89.8108638,66.7821102 91.2165879,68.5527925 93.7359592,68.5527925 C94.9771484,68.5527925 95.8533794,68.1690619 96.6931699,67.3298236"></path>
        <path fill="#6D5A54" id="Fill-36" d="M104.723631,64.2445738 L104.723631,63.7073509 C104.723631,59.9346436 102.980555,58.8590934 100.982395,58.8590934 C98.4171972,58.8590934 97.0020868,60.9345518 97.0020868,63.7150807 C97.0020868,66.6722914 98.6446749,68.5528477 101.2557,68.5528477 C102.496337,68.5528477 103.610536,68.1508968 104.577869,67.3298788 L103.792739,66.1069098 C103.099816,66.7092842 102.350574,67.0190293 101.492564,67.0190293 C99.6854408,67.0190293 99.2106086,65.6685183 99.2106086,64.3903363 L99.2106086,64.2445738 L104.723631,64.2445738 Z M102.642651,62.7659685 L99.2293811,62.7659685 C99.2293811,61.2691429 99.8494236,60.3741394 100.982395,60.3741394 C101.985616,60.3741394 102.642651,61.2691429 102.642651,62.7659685 L102.642651,62.7659685 Z"></path>
        <path fill="#6D5A54" id="Fill-38" d="M63.1968511,40.0349236 C63.94554,40.0349236 64.5479143,39.4325493 64.5479143,38.7020807 C64.5479143,37.9357236 63.94554,37.3515696 63.2332917,37.3515696 C62.4846028,37.3515696 61.9004488,37.9539439 61.9004488,38.7020807 C61.9004488,39.4325493 62.4663825,40.0349236 63.1968511,40.0349236 L63.1968511,40.0349236 Z M64.2188446,50.6407974 L64.2188446,41.1850113 L62.1930779,41.5505217 L62.1930779,50.6407974 L64.2188446,50.6407974 Z"></path>
        <path fill="#6D5A54" id="Fill-40" d="M73.9164638,41.4044832 L71.8172638,41.4044832 L70.2839975,46.0953834 C69.9367075,47.1361493 69.7362841,48.231024 69.7362841,48.231024 L69.6998435,48.231024 C69.6998435,48.231024 69.4442071,47.1361493 69.1339098,46.1682647 L67.5272102,41.1847352 L65.4644509,41.4773644 L68.7871719,50.6780662 L70.5578542,50.6780662 L73.9164638,41.4044832 Z"></path>
        <path fill="#6D5A54" id="Fill-42" d="M76.174346,40.0664502 C76.9230349,40.0664502 77.5254092,39.4640759 77.5254092,38.7336073 C77.5254092,37.9672503 76.9230349,37.3830963 76.2107866,37.3830963 C75.4620977,37.3830963 74.8779437,37.9854706 74.8779437,38.7336073 C74.8779437,39.4640759 75.4438774,40.0664502 76.174346,40.0664502 L76.174346,40.0664502 Z M77.1963395,50.672324 L77.1963395,41.216538 L75.1705729,41.5820483 L75.1705729,50.672324 L77.1963395,50.672324 Z"></path>
        <path fill="#6D5A54" id="Fill-44" d="M82.8144324,50.6224666 L82.4859148,49.3807253 C82.2484987,49.4905992 81.9382014,49.3994977 81.8288796,49.2355149 C81.682565,49.0168713 81.6279041,48.8153437 81.6279041,47.5741544 L81.6279041,39.742184 C81.6279041,38.5379875 81.6096838,37.7716305 81.4633692,37.2051446 L79.4006099,37.6617565 C79.5287041,38.4281136 79.583365,39.1039212 79.583365,40.3633308 L79.583365,48.2306375 C79.583365,49.0168713 79.583365,50.8422146 81.6096838,50.8422146 C82.0657435,50.8422146 82.4489221,50.7693333 82.8144324,50.6224666"></path>
        <path fill="#6D5A54" id="Fill-46" d="M96.4473062,80.4469523 C96.1430823,81.7024969 94.8759429,82.5754151 93.0329315,82.5754151 C92.3758962,82.8133834 91.7917422,83.1601213 91.7917422,83.4521983 C91.7917422,83.7989362 91.9192844,83.8348247 94.0919177,83.8348247 C95.570523,83.8348247 97.1584502,84.5840657 97.1584502,86.4635178 C97.1584502,88.4357277 95.51531,89.4947139 93.0511518,89.4947139 C90.6598748,89.4947139 88.9256331,88.7095844 88.9256331,86.9758948 C88.9256331,86.5375032 89.1083882,85.9897898 89.1083882,85.9897898 L91.0066127,85.9897898 C91.0066127,85.9897898 90.8608503,86.3547481 90.8608503,86.6462729 C90.8608503,87.5042837 91.5907667,87.9791158 92.8866169,87.9791158 C94.3105613,87.9791158 95.0774705,87.395514 95.0774705,86.5375032 C95.0774705,85.533178 94.2376801,85.2593213 92.5216587,85.2593213 C90.0392802,85.2593213 89.4915668,84.7668209 89.4915668,83.8535971 C89.4915668,82.9414776 90.2579238,82.5754151 91.2440288,82.2651178 C89.856525,81.8642711 89.1448289,80.9692677 89.1448289,79.6551972 C89.1448289,79.3493169 89.183478,79.061657 89.2585677,78.7922173 C89.6340164,77.3881496 90.9773498,76.5058451 92.8396858,76.5058451 C94.1537563,76.5058451 94.9024452,76.9806773 95.6511341,76.9806773 C96.1977432,76.9806773 96.793492,76.7565124 97.1639715,76.2562822 L97.1639715,77.8972139 C96.6797531,78.202542 96.1132672,78.2903307 96.1132672,78.2903307 C96.1132672,78.2903307 96.7813451,79.0677304 96.4473062,80.4469523 M92.8137357,78.0490497 C92.0081774,78.0490497 91.4864141,78.4002047 91.3014504,79.0577921 C91.2561757,79.2272961 91.2335383,79.4177811 91.2335383,79.6270386 C91.2335383,80.6854726 91.8359127,81.1790772 92.8214655,81.1790772 C93.6408271,81.1790772 94.1543084,80.839517 94.3359593,80.1957329 C94.3801298,80.0289895 94.402215,79.8429216 94.402215,79.6364248 C94.402215,78.596211 93.8727219,78.0490497 92.8137357,78.0490497"></path>
        <path fill="#6D5A54" id="Fill-48" d="M61.1088042,85.0780568 L60.1232513,83.7457661 C59.411003,84.3105955 58.7539678,84.5485637 57.8595165,84.5485637 C54.8095479,84.5485637 54.5555679,81.4074936 54.5555679,79.6196952 C54.5555679,77.8821407 54.9354336,74.7824804 57.7314222,74.7824804 C58.5165517,74.7824804 59.2105797,75.0016761 59.8858352,75.4947286 L60.8531678,74.1066727 C60.105031,73.4860781 58.936723,73.1205677 57.7132019,73.1205677 C54.2888889,73.1205677 52.2189518,76.071705 52.2189518,79.8565592 C52.2189518,83.2598913 54.1630031,86.1917039 57.658541,86.1917039 C59.0096042,86.1917039 60.1232513,85.8261936 61.1088042,85.0780568"></path>
        <path fill="#6D5A54" id="Fill-50" d="M69.6582129,64.2445738 L69.6582129,63.7073509 C69.6582129,59.9346436 67.9145849,58.8590934 65.9158727,58.8590934 C63.3517789,58.8590934 61.9361164,60.9345518 61.9361164,63.7150807 C61.9361164,66.6722914 63.5792566,68.5528477 66.1897294,68.5528477 C67.4314708,68.5528477 68.5445658,68.1508968 69.5124504,67.3298788 L68.7273209,66.1069098 C68.033293,66.7092842 67.2851562,67.0190293 66.4271455,67.0190293 C64.6200225,67.0190293 64.1451904,65.6685183 64.1451904,64.3903363 L64.1451904,64.2445738 L69.6582129,64.2445738 Z M67.5772332,62.7659685 L64.1634107,62.7659685 C64.1634107,61.2691429 64.7845574,60.3741394 65.9158727,60.3741394 C66.920198,60.3741394 67.5772332,61.2691429 67.5772332,62.7659685 L67.5772332,62.7659685 Z"></path>
        <g transform="translate(97.727089, 76.094066)" id="Group-54">
          <mask fill="white" id="mask-4">
            
          </mask>
          <g id="Clip-53"></g>
          <path mask="url(#mask-4)" fill="#6D5A54" id="Fill-52" d="M7.88508536,5.82326462 L7.88508536,5.2860417 C7.88508536,1.51333435 6.1414574,0.438336363 4.14274518,0.438336363 C1.57865138,0.438336363 0.163541039,2.51324259 0.163541039,5.29377152 C0.163541039,8.2509822 1.80612912,10.1320906 4.41660188,10.1320906 C5.65834326,10.1320906 6.77199037,9.72958754 7.73932292,8.90801744 L6.95419342,7.68449636 C6.26126971,8.28852708 5.51202869,8.59772013 4.65401797,8.59772013 C2.84689502,8.59772013 2.37316709,7.24665692 2.37316709,5.96957919 L2.37316709,5.82326462 L7.88508536,5.82326462 Z M5.8041057,4.34465928 L2.39028314,4.34465928 C2.39028314,2.84783364 3.01142989,1.95283018 4.14274518,1.95283018 C5.14707046,1.95283018 5.8041057,2.84783364 5.8041057,4.34465928 L5.8041057,4.34465928 Z"></path>
        </g>
        <path fill="#6D5A54" id="Fill-55" d="M57.2447192,97.3699714 C57.2447192,96.9117031 57.0636204,96.4225155 56.7660221,96.081851 C56.4678717,95.7417387 56.1277593,95.5501494 55.4784539,95.3480697 L54.6375593,95.0819428 C53.7756836,94.8053254 53.4250808,94.4751514 53.4250808,93.8898931 C53.4250808,93.1456213 53.9672729,92.6884573 54.8827052,92.6884573 C55.5104775,92.6884573 55.957151,92.848023 56.659461,93.305187 L57.0426395,92.6768625 C56.35082,92.2081038 55.6275291,91.9751047 54.8401911,91.9751047 C53.4250808,91.9751047 52.4776249,92.8259378 52.4776249,94.0704398 C52.4776249,94.5391985 52.6371906,94.943358 52.9353411,95.2635937 C53.2224489,95.561192 53.5736039,95.7097151 54.2333998,95.9117948 L54.9677333,96.1359598 C55.8505898,96.4015345 56.2762824,96.8487602 56.2762824,97.4975135 C56.2762824,97.9232061 56.1062262,98.2749132 55.7550713,98.5404879 C55.4464304,98.7740391 55.1482799,98.8590672 54.5950452,98.8590672 C53.8607117,98.8590672 53.243982,98.66803 52.6371906,98.231847 L52.2540121,98.9126238 C52.9778551,99.3598495 53.7226791,99.5718676 54.5950452,99.5718676 C55.2653316,99.5718676 55.7550713,99.433835 56.2337684,99.1257462 C56.8830738,98.7110962 57.2447192,98.0501961 57.2447192,97.3699714"></path>
        <path fill="#6D5A54" id="Fill-57" d="M59.5977336,99.4344975 L59.5977336,94.0175457 L58.7358579,94.1555783 L58.7358579,99.4344975 L59.5977336,99.4344975 Z M59.8318369,92.4964263 C59.8318369,92.1342287 59.5441769,91.8471209 59.1825315,91.8471209 C58.820886,91.8471209 58.5337782,92.1452714 58.5337782,92.5063647 C58.5337782,92.8586239 58.820886,93.1451796 59.1825315,93.1451796 C59.5441769,93.1451796 59.8318369,92.8586239 59.8318369,92.4964263 L59.8318369,92.4964263 Z"></path>
        <path fill="#6D5A54" id="Fill-59" d="M65.4069741,99.4344975 L65.4069741,95.4116751 C65.4069741,95.1985527 65.36446,94.9859825 65.2794319,94.7954975 C65.0663096,94.3261866 64.5555889,94.0175457 63.9813733,94.0175457 C63.4170959,94.0175457 62.8638612,94.2842247 62.3106265,94.8374594 C62.3106265,94.4012764 62.1190373,94.0076074 62.1190373,94.0076074 L61.3101661,94.2301159 C61.3101661,94.2301159 61.5122459,94.5917614 61.5122459,95.3481801 L61.5122459,99.4344975 L62.321117,99.4344975 L62.321117,95.4862127 C62.7042955,95.0815011 63.3640914,94.7413887 63.789784,94.7413887 C64.0343778,94.7413887 64.2574385,94.8264168 64.3750423,94.9638973 C64.5235654,95.1449961 64.5660794,95.2835808 64.5660794,95.8478581 L64.5660794,99.4344975 L65.4069741,99.4344975 Z"></path>
        <path fill="#6D5A54" id="Fill-61" d="M71.7278739,94.6028592 L71.2166011,94.0926907 C70.9615168,94.263299 70.7594371,94.3262418 70.4828197,94.3262418 C69.8335143,94.3262418 69.6739486,94.0286435 68.8656296,94.0286435 C67.7056036,94.0286435 66.9077751,94.7519344 66.9077751,95.8164419 C66.9077751,96.5187518 67.3864722,97.1249911 68.0992726,97.3486039 C67.3754295,97.5722167 67.1413262,97.8278531 67.1413262,98.2518893 C67.1413262,98.7322428 67.5140143,99.0193506 68.1417866,99.0193506 C68.3118428,99.0193506 68.748578,99.008308 68.9611482,99.008308 C69.4823593,99.008308 69.8020429,99.0624168 70.0041226,99.1998973 C70.1957119,99.3274394 70.2912304,99.5510523 70.2912304,99.837608 C70.2912304,100.498508 69.8230238,100.764635 69.0036622,100.764635 C68.5779697,100.764635 68.1843007,100.668564 67.9292164,100.519489 C67.7376271,100.40299 67.6205755,100.178825 67.6205755,99.9022072 C67.6205755,99.7321511 67.6945609,99.5400097 67.7690986,99.4235101 L66.8967324,99.4969435 C66.8221948,99.7111701 66.7901713,99.8707358 66.7901713,100.062325 C66.7901713,100.817087 67.4289862,101.413388 69.0886903,101.413388 C70.3762585,101.413388 71.1956201,100.891625 71.1956201,99.7426415 C71.1956201,99.2843733 71.0255639,98.9127895 70.6103618,98.6256816 C70.2912304,98.4020688 69.950566,98.3275312 69.3338362,98.3275312 L68.481899,98.3275312 C68.2163242,98.3275312 68.0567585,98.2309084 68.0567585,98.0718948 C68.0567585,97.890796 68.3013523,97.7102494 69.0147048,97.454613 C69.3973312,97.454613 69.7379957,97.391118 70.0041226,97.2210618 C70.4933102,96.9118687 70.7914606,96.358634 70.7914606,95.7628853 C70.7914606,95.4222208 70.6848995,95.1240703 70.4723292,94.8584956 C70.5678478,94.9015618 70.6953899,94.9225427 70.8339747,94.9225427 C71.1531061,94.9225427 71.3976999,94.8375146 71.7278739,94.6028592 M69.8230238,95.7739279 C69.8230238,96.4872804 69.5038924,96.8594163 68.8656296,96.8594163 C68.1953433,96.8594163 67.8436362,96.4872804 67.8436362,95.8059514 C67.8436362,95.0716179 68.1843007,94.7094204 68.8440965,94.7094204 C69.5464065,94.7094204 69.8230238,95.0495327 69.8230238,95.7739279"></path>
        <path fill="#6D5A54" id="Fill-63" d="M76.5374822,99.0398347 C76.1438132,98.8272645 76.0908087,98.6036516 76.1117896,97.7423281 L76.1543037,95.9964917 C76.1647941,95.5183467 76.1543037,95.1141872 76.037252,94.8265272 C75.8136392,94.2843351 75.3029185,93.9966752 74.5691372,93.9966752 C73.8027801,93.9966752 73.0474656,94.241269 72.3446036,94.7094756 L72.7598057,95.3046722 C73.1004702,94.9971355 73.8557846,94.677452 74.4520855,94.677452 C74.7817074,94.677452 74.9948297,94.7729706 75.1648859,94.9640077 C75.3139611,95.1351682 75.3349421,95.3262053 75.3349421,95.794964 L75.3349421,96.1676521 C75.3349421,96.1676521 75.1858669,96.1566095 74.9628062,96.1566095 C73.1854983,96.1566095 72.1535664,96.8594715 72.1535664,98.0614595 C72.1535664,98.7742599 72.5472355,99.5726406 73.8557846,99.5726406 C74.462576,99.5726406 74.8772259,99.3705608 75.3879466,98.859288 C75.4840173,99.2319761 75.7501442,99.5190839 76.1117896,99.6361356 L76.5374822,99.0398347 Z M75.3139611,96.7418678 L75.2819376,98.1255067 C75.0373438,98.6251847 74.5371136,98.9553587 73.9943694,98.9553587 C73.387578,98.9553587 73.0789371,98.6141421 73.0789371,97.9869219 C73.0789371,97.1774987 73.5581863,96.7208868 74.898759,96.7208868 C75.0478343,96.7208868 75.1753764,96.7308251 75.3139611,96.7418678 L75.3139611,96.7418678 Z"></path>
        <path fill="#6D5A54" id="Fill-65" d="M82.401991,96.7741674 C82.401991,95.8261594 82.2104017,95.1774061 81.8167327,94.6882186 C81.4766203,94.262526 80.9443666,94.0284227 80.4016224,94.0284227 C79.8163641,94.0284227 79.2736199,94.2945495 78.8374368,94.8058223 C78.8374368,94.2200119 78.7844323,93.9969512 78.7844323,93.9969512 L77.9330471,94.1449222 C77.9330471,94.1449222 78.0495466,94.4756483 78.0495466,95.2839673 L78.0495466,101.647271 L78.8799508,101.488257 L78.8799508,98.9545305 C79.2526389,99.3388133 79.794831,99.5718124 80.3381274,99.5718124 C81.0293947,99.5718124 81.5931199,99.2212095 81.9762984,98.6033756 C82.2744488,98.1147401 82.401991,97.6250004 82.401991,96.7741674 M81.5185823,96.8796243 C81.5185823,97.4759252 81.4550873,97.8806368 81.2955216,98.2213013 C81.1144228,98.6144182 80.6677492,98.8799929 80.1780095,98.8799929 C79.731336,98.8799929 79.2736199,98.6365034 78.8799508,98.1892777 L78.8799508,95.5186228 C79.2841103,95.028883 79.7633596,94.7732466 80.2950612,94.7732466 C80.7207538,94.7732466 81.1039323,94.9963073 81.2739885,95.3590571 C81.4230637,95.6776363 81.5185823,96.2413615 81.5185823,96.8796243"></path>
        <path fill="#6D5A54" id="Fill-67" d="M88.1925695,96.8695755 C88.1925695,96.0071478 88.0330038,95.3793755 87.7028298,94.9017826 C87.3411843,94.3794672 86.7669687,93.9747556 85.8835599,93.9747556 C84.4894306,93.9747556 83.6275549,95.0282205 83.6275549,96.753076 C83.6275549,98.4972561 84.457407,99.5728062 85.9155835,99.5728062 C87.2456658,99.5728062 88.1925695,98.6358408 88.1925695,96.8695755 M87.2456658,96.9336227 C87.2456658,97.4548338 87.2031517,97.7535364 87.0861001,98.0831583 C86.9050013,98.5933268 86.4903513,98.8809868 85.9365645,98.8809868 C85.4794004,98.8809868 85.0537079,98.6678644 84.8621186,98.348733 C84.6600389,98.0191111 84.5324967,97.3587631 84.5324967,96.6139391 C84.5324967,95.9861668 84.6169727,95.5604742 84.787581,95.2303002 C84.9681277,94.8802495 85.4048628,94.6560846 85.8730695,94.6560846 C86.3092525,94.6560846 86.7774591,94.8686548 87.001072,95.3379657 C87.1711281,95.6885685 87.2456658,96.1887987 87.2456658,96.9336227"></path>
        <path fill="#6D5A54" id="Fill-69" d="M92.3335478,94.0285883 C92.3335478,94.0285883 92.1844726,93.9744795 92.04644,93.9744795 C91.5036958,93.9744795 90.9394185,94.3156961 90.5562399,94.8584404 C90.5882635,94.4106626 90.3861837,93.9965647 90.3861837,93.9965647 L89.5563317,94.2201776 C89.5563317,94.2201776 89.7368783,94.5707804 89.7368783,95.3481801 L89.7368783,99.4344975 L90.5672825,99.4344975 L90.5672825,96.1134329 C90.5672825,95.6766977 90.6313297,95.5187884 90.8759235,95.2736425 C91.1205172,95.0284966 91.4396486,94.8910161 91.75878,94.8910161 C91.8438081,94.8910161 91.9398788,94.911997 91.9928833,94.932978 L92.3335478,94.0285883 Z"></path>
        <path fill="#6D5A54" id="Fill-71" d="M96.9733208,96.9224144 L96.9733208,96.8053628 C96.9733208,95.5393276 96.8242456,95.0390975 96.3665295,94.5708908 C96.004884,94.1987549 95.5046538,93.9972273 94.9304382,93.9972273 C94.2916233,93.9972273 93.7704121,94.2302263 93.3447195,94.7310087 C92.8974939,95.2632624 92.7064567,95.8374781 92.7064567,96.7308251 C92.7064567,98.4871521 93.5893133,99.5511075 95.0579803,99.5511075 C95.7387572,99.5511075 96.3775721,99.316452 96.8457787,98.8918637 L96.5266473,98.35961 C96.1539593,98.6997223 95.7387572,98.859288 95.2280365,98.859288 C94.6957827,98.859288 94.2065952,98.6676988 93.9084447,98.2105348 C93.7278981,97.9339174 93.6638509,97.551291 93.6638509,97.0499565 L93.6638509,96.9224144 L96.9733208,96.9224144 Z M96.0899121,96.2946421 L93.6638509,96.2946421 C93.706365,95.1986632 94.1320576,94.6459806 94.8879241,94.6459806 C95.2920836,94.6459806 95.6642195,94.8265272 95.8453183,95.1136351 C96.004884,95.3692715 96.0794216,95.7204264 96.0899121,96.2946421 L96.0899121,96.2946421 Z"></path>
      </g>
    </g>
  </g>
</svg>